# xmcd CD database file
#
# Track frame offsets:
#	150
#	24740
#	45029
#	67968
#	85722
#	103241
#	128387
#	146531
#	158170
#	179539
#	201174
#	227840
#	246364
#
# Disc length: 3434 seconds
#
# Revision: 2
# Processed by: cddbd v1.5.2PL0 Copyright (c) Steve Scherf et al.
# Submitted via: CDex 1.51
#
DISCID=a60d680d
DTITLE=Richard Koechli - Laid-Back
DYEAR=2008
DGENRE=Blues
TTITLE0=Laid-back sur hamac
TTITLE1=My Slide Is Crying
TTITLE2=La chance de t'aimer
TTITLE3=Ce soir
TTITLE4=Mister Marketing Man
TTITLE5=Deep Water
TTITLE6=Sexappeal
TTITLE7=SILENCE
TTITLE8=Une dernière fois
TTITLE9=Blue Lord (Depression Blues)
TTITLE10=Raccourcir
TTITLE11=Searching For A New God
TTITLE12=Se taire
EXTD=YEAR: 2008
EXTT0=
EXTT1=
EXTT2=
EXTT3=
EXTT4=
EXTT5=
EXTT6=
EXTT7=
EXTT8=
EXTT9=
EXTT10=
EXTT11=
EXTT12=
PLAYORDER=
